<?xml version="1.0" encoding="UTF-8" standalone="no"?>
<!DOCTYPE svg PUBLIC "-//W3C//DTD SVG 1.1//EN"
 "http://www.w3.org/Graphics/SVG/1.1/DTD/svg11.dtd">
<!-- Generated by graphviz version 2.47.0 (20210316.0004)
 -->
<!-- Title: dependencies Pages: 1 -->
<svg width="2041pt" height="284pt"
 viewBox="0.00 0.00 2041.00 284.00" xmlns="http://www.w3.org/2000/svg" xmlns:xlink="http://www.w3.org/1999/xlink">
<g id="graph0" class="graph" transform="scale(1 1) rotate(0) translate(4 280)">
<title>dependencies</title>
<polygon fill="white" stroke="transparent" points="-4,4 -4,-280 2037,-280 2037,4 -4,4"/>
<text text-anchor="start" x="995.51" y="-42.4" font-family="sans-serif" font-weight="bold" font-size="14.00">Legend</text>
<polygon fill="#ffffb3" stroke="transparent" points="782.5,-10 782.5,-30 802.5,-30 802.5,-10 782.5,-10"/>
<text text-anchor="start" x="806.13" y="-15.4" font-family="sans-serif" font-size="14.00"> &#160;Declarations</text>
<polygon fill="#8dd3c7" stroke="transparent" points="895.5,-10 895.5,-30 915.5,-30 915.5,-10 895.5,-10"/>
<text text-anchor="start" x="919.23" y="-15.4" font-family="sans-serif" font-size="14.00"> &#160;Module</text>
<polygon fill="#80b1d3" stroke="transparent" points="981.5,-10 981.5,-30 1001.5,-30 1001.5,-10 981.5,-10"/>
<text text-anchor="start" x="1005.28" y="-15.4" font-family="sans-serif" font-size="14.00"> &#160;Bootstrap</text>
<polygon fill="#fdb462" stroke="transparent" points="1078.5,-10 1078.5,-30 1098.5,-30 1098.5,-10 1078.5,-10"/>
<text text-anchor="start" x="1102.17" y="-15.4" font-family="sans-serif" font-size="14.00"> &#160;Providers</text>
<polygon fill="#fb8072" stroke="transparent" points="1174.5,-10 1174.5,-30 1194.5,-30 1194.5,-10 1174.5,-10"/>
<text text-anchor="start" x="1198.23" y="-15.4" font-family="sans-serif" font-size="14.00"> &#160;Exports</text>
<g id="clust1" class="cluster">
<title>cluster_AppModule</title>
<polygon fill="none" stroke="black" stroke-dasharray="1,5" points="8,-70 8,-268 2025,-268 2025,-70 8,-70"/>
</g>
<g id="clust2" class="cluster">
<title>cluster_AppModule_declarations</title>
<polygon fill="none" stroke="black" points="168,-78 168,-130 2017,-130 2017,-78 168,-78"/>
</g>
<g id="clust14" class="cluster">
<title>cluster_AppModule_imports</title>
<polygon fill="none" stroke="black" points="16,-78 16,-130 160,-130 160,-78 16,-78"/>
</g>
<g id="clust16" class="cluster">
<title>cluster_AppModule_bootstrap</title>
<polygon fill="none" stroke="black" points="886,-208 886,-260 1010,-260 1010,-208 886,-208"/>
</g>
<!-- AlertHomeComponent -->
<g id="node1" class="node">
<title>AlertHomeComponent</title>
<polygon fill="#ffffb3" stroke="black" points="2009.31,-122 1864.69,-122 1864.69,-86 2009.31,-86 2009.31,-122"/>
<text text-anchor="middle" x="1937" y="-99.8" font-family="Times,serif" font-size="14.00">AlertHomeComponent</text>
</g>
<!-- AppModule -->
<g id="node12" class="node">
<title>AppModule</title>
<polygon fill="#8dd3c7" stroke="black" points="989.66,-187 986.66,-191 965.66,-191 962.66,-187 906.34,-187 906.34,-151 989.66,-151 989.66,-187"/>
<text text-anchor="middle" x="948" y="-164.8" font-family="Times,serif" font-size="14.00">AppModule</text>
</g>
<!-- AlertHomeComponent&#45;&gt;AppModule -->
<g id="edge1" class="edge">
<title>AlertHomeComponent&#45;&gt;AppModule</title>
<path fill="none" stroke="black" d="M1937,-122.25C1937,-145.02 1937,-181 1937,-181 1937,-181 999.86,-181 999.86,-181"/>
<polygon fill="black" stroke="black" points="999.86,-177.5 989.86,-181 999.86,-184.5 999.86,-177.5"/>
</g>
<!-- AlerteValidationCandidaturesComponent -->
<g id="node2" class="node">
<title>AlerteValidationCandidaturesComponent</title>
<polygon fill="#ffffb3" stroke="black" points="1846.78,-122 1597.22,-122 1597.22,-86 1846.78,-86 1846.78,-122"/>
<text text-anchor="middle" x="1722" y="-99.8" font-family="Times,serif" font-size="14.00">AlerteValidationCandidaturesComponent</text>
</g>
<!-- AlerteValidationCandidaturesComponent&#45;&gt;AppModule -->
<g id="edge2" class="edge">
<title>AlerteValidationCandidaturesComponent&#45;&gt;AppModule</title>
<path fill="none" stroke="black" d="M1722,-122.28C1722,-143.32 1722,-175 1722,-175 1722,-175 999.89,-175 999.89,-175"/>
<polygon fill="black" stroke="black" points="999.89,-171.5 989.89,-175 999.89,-178.5 999.89,-171.5"/>
</g>
<!-- AppComponent -->
<g id="node3" class="node">
<title>AppComponent</title>
<polygon fill="#ffffb3" stroke="black" points="1579.94,-122 1474.06,-122 1474.06,-86 1579.94,-86 1579.94,-122"/>
<text text-anchor="middle" x="1527" y="-99.8" font-family="Times,serif" font-size="14.00">AppComponent</text>
</g>
<!-- AppComponent&#45;&gt;AppModule -->
<g id="edge3" class="edge">
<title>AppComponent&#45;&gt;AppModule</title>
<path fill="none" stroke="black" d="M1527,-122.11C1527,-141.34 1527,-169 1527,-169 1527,-169 1000.11,-169 1000.11,-169"/>
<polygon fill="black" stroke="black" points="1000.11,-165.5 990.11,-169 1000.11,-172.5 1000.11,-165.5"/>
</g>
<!-- CandidatureMotivationComponent -->
<g id="node4" class="node">
<title>CandidatureMotivationComponent</title>
<polygon fill="#ffffb3" stroke="black" points="1455.98,-122 1244.02,-122 1244.02,-86 1455.98,-86 1455.98,-122"/>
<text text-anchor="middle" x="1350" y="-99.8" font-family="Times,serif" font-size="14.00">CandidatureMotivationComponent</text>
</g>
<!-- CandidatureMotivationComponent&#45;&gt;AppModule -->
<g id="edge4" class="edge">
<title>CandidatureMotivationComponent&#45;&gt;AppModule</title>
<path fill="none" stroke="black" d="M1350,-122.02C1350,-139.37 1350,-163 1350,-163 1350,-163 999.88,-163 999.88,-163"/>
<polygon fill="black" stroke="black" points="999.88,-159.5 989.88,-163 999.88,-166.5 999.88,-159.5"/>
</g>
<!-- LotsComponent -->
<g id="node5" class="node">
<title>LotsComponent</title>
<polygon fill="#ffffb3" stroke="black" points="1226.22,-122 1119.78,-122 1119.78,-86 1226.22,-86 1226.22,-122"/>
<text text-anchor="middle" x="1173" y="-99.8" font-family="Times,serif" font-size="14.00">LotsComponent</text>
</g>
<!-- LotsComponent&#45;&gt;AppModule -->
<g id="edge5" class="edge">
<title>LotsComponent&#45;&gt;AppModule</title>
<path fill="none" stroke="black" d="M1173,-122.24C1173,-137.57 1173,-157 1173,-157 1173,-157 999.79,-157 999.79,-157"/>
<polygon fill="black" stroke="black" points="999.79,-153.5 989.79,-157 999.79,-160.5 999.79,-153.5"/>
</g>
<!-- LotsDetailsComponent -->
<g id="node6" class="node">
<title>LotsDetailsComponent</title>
<polygon fill="#ffffb3" stroke="black" points="1101.87,-122 956.13,-122 956.13,-86 1101.87,-86 1101.87,-122"/>
<text text-anchor="middle" x="1029" y="-99.8" font-family="Times,serif" font-size="14.00">LotsDetailsComponent</text>
</g>
<!-- LotsDetailsComponent&#45;&gt;AppModule -->
<g id="edge6" class="edge">
<title>LotsDetailsComponent&#45;&gt;AppModule</title>
<path fill="none" stroke="black" d="M972.95,-122.11C972.95,-122.11 972.95,-140.99 972.95,-140.99"/>
<polygon fill="black" stroke="black" points="969.45,-140.99 972.95,-150.99 976.45,-140.99 969.45,-140.99"/>
</g>
<!-- PersonnelsComponent -->
<g id="node7" class="node">
<title>PersonnelsComponent</title>
<polygon fill="#ffffb3" stroke="black" points="937.98,-122 796.02,-122 796.02,-86 937.98,-86 937.98,-122"/>
<text text-anchor="middle" x="867" y="-99.8" font-family="Times,serif" font-size="14.00">PersonnelsComponent</text>
</g>
<!-- PersonnelsComponent&#45;&gt;AppModule -->
<g id="edge7" class="edge">
<title>PersonnelsComponent&#45;&gt;AppModule</title>
<path fill="none" stroke="black" d="M922.08,-122.11C922.08,-122.11 922.08,-140.99 922.08,-140.99"/>
<polygon fill="black" stroke="black" points="918.58,-140.99 922.08,-150.99 925.58,-140.99 918.58,-140.99"/>
</g>
<!-- SearchFilterPipe -->
<g id="node8" class="node">
<title>SearchFilterPipe</title>
<polygon fill="#ffffb3" stroke="black" points="777.8,-122 668.2,-122 668.2,-86 777.8,-86 777.8,-122"/>
<text text-anchor="middle" x="723" y="-99.8" font-family="Times,serif" font-size="14.00">SearchFilterPipe</text>
</g>
<!-- SearchFilterPipe&#45;&gt;AppModule -->
<g id="edge8" class="edge">
<title>SearchFilterPipe&#45;&gt;AppModule</title>
<path fill="none" stroke="black" d="M723,-122.24C723,-137.57 723,-157 723,-157 723,-157 896.21,-157 896.21,-157"/>
<polygon fill="black" stroke="black" points="896.21,-160.5 906.21,-157 896.21,-153.5 896.21,-160.5"/>
</g>
<!-- SitesComponent -->
<g id="node9" class="node">
<title>SitesComponent</title>
<polygon fill="#ffffb3" stroke="black" points="650.06,-122 541.94,-122 541.94,-86 650.06,-86 650.06,-122"/>
<text text-anchor="middle" x="596" y="-99.8" font-family="Times,serif" font-size="14.00">SitesComponent</text>
</g>
<!-- SitesComponent&#45;&gt;AppModule -->
<g id="edge9" class="edge">
<title>SitesComponent&#45;&gt;AppModule</title>
<path fill="none" stroke="black" d="M596,-122.02C596,-139.37 596,-163 596,-163 596,-163 896.24,-163 896.24,-163"/>
<polygon fill="black" stroke="black" points="896.24,-166.5 906.24,-163 896.24,-159.5 896.24,-166.5"/>
</g>
<!-- TaxonomieComponent -->
<g id="node10" class="node">
<title>TaxonomieComponent</title>
<polygon fill="#ffffb3" stroke="black" points="523.6,-122 378.4,-122 378.4,-86 523.6,-86 523.6,-122"/>
<text text-anchor="middle" x="451" y="-99.8" font-family="Times,serif" font-size="14.00">TaxonomieComponent</text>
</g>
<!-- TaxonomieComponent&#45;&gt;AppModule -->
<g id="edge10" class="edge">
<title>TaxonomieComponent&#45;&gt;AppModule</title>
<path fill="none" stroke="black" d="M451,-122.11C451,-141.34 451,-169 451,-169 451,-169 896.05,-169 896.05,-169"/>
<polygon fill="black" stroke="black" points="896.05,-172.5 906.05,-169 896.05,-165.5 896.05,-172.5"/>
</g>
<!-- TaxonomieDetailsComponent -->
<g id="node11" class="node">
<title>TaxonomieDetailsComponent</title>
<polygon fill="#ffffb3" stroke="black" points="360.25,-122 175.75,-122 175.75,-86 360.25,-86 360.25,-122"/>
<text text-anchor="middle" x="268" y="-99.8" font-family="Times,serif" font-size="14.00">TaxonomieDetailsComponent</text>
</g>
<!-- TaxonomieDetailsComponent&#45;&gt;AppModule -->
<g id="edge11" class="edge">
<title>TaxonomieDetailsComponent&#45;&gt;AppModule</title>
<path fill="none" stroke="black" d="M268,-122.28C268,-143.32 268,-175 268,-175 268,-175 896.23,-175 896.23,-175"/>
<polygon fill="black" stroke="black" points="896.23,-178.5 906.23,-175 896.23,-171.5 896.23,-178.5"/>
</g>
<!-- AppComponent  -->
<g id="node14" class="node">
<title>AppComponent </title>
<polygon fill="#80b1d3" stroke="black" points="1002.44,-252 893.56,-252 893.56,-216 1002.44,-216 1002.44,-252"/>
<text text-anchor="middle" x="948" y="-229.8" font-family="Times,serif" font-size="14.00">AppComponent </text>
</g>
<!-- AppModule&#45;&gt;AppComponent  -->
<g id="edge13" class="edge">
<title>AppModule&#45;&gt;AppComponent </title>
<path fill="none" stroke="black" stroke-dasharray="1,5" d="M948,-187.11C948,-187.11 948,-205.99 948,-205.99"/>
<polygon fill="black" stroke="black" points="944.5,-205.99 948,-215.99 951.5,-205.99 944.5,-205.99"/>
</g>
<!-- AppRoutingModule -->
<g id="node13" class="node">
<title>AppRoutingModule</title>
<polygon fill="#8dd3c7" stroke="black" points="152.27,-122 149.27,-126 128.27,-126 125.27,-122 23.73,-122 23.73,-86 152.27,-86 152.27,-122"/>
<text text-anchor="middle" x="88" y="-99.8" font-family="Times,serif" font-size="14.00">AppRoutingModule</text>
</g>
<!-- AppRoutingModule&#45;&gt;AppModule -->
<g id="edge12" class="edge">
<title>AppRoutingModule&#45;&gt;AppModule</title>
<path fill="none" stroke="black" d="M88,-122.25C88,-145.02 88,-181 88,-181 88,-181 896.23,-181 896.23,-181"/>
<polygon fill="black" stroke="black" points="896.23,-184.5 906.23,-181 896.23,-177.5 896.23,-184.5"/>
</g>
</g>
</svg>
