<?xml version="1.0" encoding="UTF-8" standalone="no"?>
<!DOCTYPE svg PUBLIC "-//W3C//DTD SVG 1.1//EN"
 "http://www.w3.org/Graphics/SVG/1.1/DTD/svg11.dtd">
<!-- Generated by graphviz version 2.47.0 (20210316.0004)
 -->
<!-- Title: dependencies Pages: 1 -->
<svg width="2041pt" height="284pt"
 viewBox="0.00 0.00 2041.00 284.00" xmlns="http://www.w3.org/2000/svg" xmlns:xlink="http://www.w3.org/1999/xlink">
<g id="graph0" class="graph" transform="scale(1 1) rotate(0) translate(4 280)">
<title>dependencies</title>
<polygon fill="white" stroke="transparent" points="-4,4 -4,-280 2037,-280 2037,4 -4,4"/>
<text text-anchor="start" x="995.51" y="-42.4" font-family="sans-serif" font-weight="bold" font-size="14.00">Legend</text>
<polygon fill="#ffffb3" stroke="transparent" points="782.5,-10 782.5,-30 802.5,-30 802.5,-10 782.5,-10"/>
<text text-anchor="start" x="806.13" y="-15.4" font-family="sans-serif" font-size="14.00"> &#160;Declarations</text>
<polygon fill="#8dd3c7" stroke="transparent" points="895.5,-10 895.5,-30 915.5,-30 915.5,-10 895.5,-10"/>
<text text-anchor="start" x="919.23" y="-15.4" font-family="sans-serif" font-size="14.00"> &#160;Module</text>
<polygon fill="#80b1d3" stroke="transparent" points="981.5,-10 981.5,-30 1001.5,-30 1001.5,-10 981.5,-10"/>
<text text-anchor="start" x="1005.28" y="-15.4" font-family="sans-serif" font-size="14.00"> &#160;Bootstrap</text>
<polygon fill="#fdb462" stroke="transparent" points="1078.5,-10 1078.5,-30 1098.5,-30 1098.5,-10 1078.5,-10"/>
<text text-anchor="start" x="1102.17" y="-15.4" font-family="sans-serif" font-size="14.00"> &#160;Providers</text>
<polygon fill="#fb8072" stroke="transparent" points="1174.5,-10 1174.5,-30 1194.5,-30 1194.5,-10 1174.5,-10"/>
<text text-anchor="start" x="1198.23" y="-15.4" font-family="sans-serif" font-size="14.00"> &#160;Exports</text>
<g id="clust1" class="cluster">
<title>cluster_AppModule</title>
<polygon fill="none" stroke="black" stroke-dasharray="1,5" points="8,-70 8,-268 2025,-268 2025,-70 8,-70"/>
</g>
<g id="clust14" class="cluster">
<title>cluster_AppModule_imports</title>
<polygon fill="none" stroke="black" points="1873,-78 1873,-130 2017,-130 2017,-78 1873,-78"/>
</g>
<g id="clust16" class="cluster">
<title>cluster_AppModule_bootstrap</title>
<polygon fill="none" stroke="black" points="887,-208 887,-260 1011,-260 1011,-208 887,-208"/>
</g>
<g id="clust2" class="cluster">
<title>cluster_AppModule_declarations</title>
<polygon fill="none" stroke="black" points="16,-78 16,-130 1865,-130 1865,-78 16,-78"/>
</g>
<!-- AlertHomeComponent -->
<g id="node1" class="node">
<title>AlertHomeComponent</title>
<polygon fill="#ffffb3" stroke="black" points="1857.31,-122 1712.69,-122 1712.69,-86 1857.31,-86 1857.31,-122"/>
<text text-anchor="middle" x="1785" y="-99.8" font-family="Times,serif" font-size="14.00">AlertHomeComponent</text>
</g>
<!-- AppModule -->
<g id="node12" class="node">
<title>AppModule</title>
<polygon fill="#8dd3c7" stroke="black" points="990.66,-187 987.66,-191 966.66,-191 963.66,-187 907.34,-187 907.34,-151 990.66,-151 990.66,-187"/>
<text text-anchor="middle" x="949" y="-164.8" font-family="Times,serif" font-size="14.00">AppModule</text>
</g>
<!-- AlertHomeComponent&#45;&gt;AppModule -->
<g id="edge1" class="edge">
<title>AlertHomeComponent&#45;&gt;AppModule</title>
<path fill="none" stroke="black" d="M1785,-122.28C1785,-143.32 1785,-175 1785,-175 1785,-175 1000.74,-175 1000.74,-175"/>
<polygon fill="black" stroke="black" points="1000.74,-171.5 990.74,-175 1000.74,-178.5 1000.74,-171.5"/>
</g>
<!-- AlerteValidationCandidaturesComponent -->
<g id="node2" class="node">
<title>AlerteValidationCandidaturesComponent</title>
<polygon fill="#ffffb3" stroke="black" points="1694.78,-122 1445.22,-122 1445.22,-86 1694.78,-86 1694.78,-122"/>
<text text-anchor="middle" x="1570" y="-99.8" font-family="Times,serif" font-size="14.00">AlerteValidationCandidaturesComponent</text>
</g>
<!-- AlerteValidationCandidaturesComponent&#45;&gt;AppModule -->
<g id="edge2" class="edge">
<title>AlerteValidationCandidaturesComponent&#45;&gt;AppModule</title>
<path fill="none" stroke="black" d="M1570,-122.11C1570,-141.34 1570,-169 1570,-169 1570,-169 1000.71,-169 1000.71,-169"/>
<polygon fill="black" stroke="black" points="1000.71,-165.5 990.71,-169 1000.71,-172.5 1000.71,-165.5"/>
</g>
<!-- AppComponent -->
<g id="node3" class="node">
<title>AppComponent</title>
<polygon fill="#ffffb3" stroke="black" points="1427.94,-122 1322.06,-122 1322.06,-86 1427.94,-86 1427.94,-122"/>
<text text-anchor="middle" x="1375" y="-99.8" font-family="Times,serif" font-size="14.00">AppComponent</text>
</g>
<!-- AppComponent&#45;&gt;AppModule -->
<g id="edge3" class="edge">
<title>AppComponent&#45;&gt;AppModule</title>
<path fill="none" stroke="black" d="M1375,-122.02C1375,-139.37 1375,-163 1375,-163 1375,-163 1001.01,-163 1001.01,-163"/>
<polygon fill="black" stroke="black" points="1001.01,-159.5 991.01,-163 1001.01,-166.5 1001.01,-159.5"/>
</g>
<!-- CandidatureMotivationComponent -->
<g id="node4" class="node">
<title>CandidatureMotivationComponent</title>
<polygon fill="#ffffb3" stroke="black" points="1303.98,-122 1092.02,-122 1092.02,-86 1303.98,-86 1303.98,-122"/>
<text text-anchor="middle" x="1198" y="-99.8" font-family="Times,serif" font-size="14.00">CandidatureMotivationComponent</text>
</g>
<!-- CandidatureMotivationComponent&#45;&gt;AppModule -->
<g id="edge4" class="edge">
<title>CandidatureMotivationComponent&#45;&gt;AppModule</title>
<path fill="none" stroke="black" d="M1198,-122.24C1198,-137.57 1198,-157 1198,-157 1198,-157 1000.68,-157 1000.68,-157"/>
<polygon fill="black" stroke="black" points="1000.68,-153.5 990.68,-157 1000.68,-160.5 1000.68,-153.5"/>
</g>
<!-- LotsComponent -->
<g id="node5" class="node">
<title>LotsComponent</title>
<polygon fill="#ffffb3" stroke="black" points="1074.22,-122 967.78,-122 967.78,-86 1074.22,-86 1074.22,-122"/>
<text text-anchor="middle" x="1021" y="-99.8" font-family="Times,serif" font-size="14.00">LotsComponent</text>
</g>
<!-- LotsComponent&#45;&gt;AppModule -->
<g id="edge5" class="edge">
<title>LotsComponent&#45;&gt;AppModule</title>
<path fill="none" stroke="black" d="M979.36,-122.11C979.36,-122.11 979.36,-140.99 979.36,-140.99"/>
<polygon fill="black" stroke="black" points="975.86,-140.99 979.36,-150.99 982.86,-140.99 975.86,-140.99"/>
</g>
<!-- LotsDetailsComponent -->
<g id="node6" class="node">
<title>LotsDetailsComponent</title>
<polygon fill="#ffffb3" stroke="black" points="949.87,-122 804.13,-122 804.13,-86 949.87,-86 949.87,-122"/>
<text text-anchor="middle" x="877" y="-99.8" font-family="Times,serif" font-size="14.00">LotsDetailsComponent</text>
</g>
<!-- LotsDetailsComponent&#45;&gt;AppModule -->
<g id="edge6" class="edge">
<title>LotsDetailsComponent&#45;&gt;AppModule</title>
<path fill="none" stroke="black" d="M928.55,-122.11C928.55,-122.11 928.55,-140.99 928.55,-140.99"/>
<polygon fill="black" stroke="black" points="925.05,-140.99 928.55,-150.99 932.05,-140.99 925.05,-140.99"/>
</g>
<!-- PersonnelsComponent -->
<g id="node7" class="node">
<title>PersonnelsComponent</title>
<polygon fill="#ffffb3" stroke="black" points="785.98,-122 644.02,-122 644.02,-86 785.98,-86 785.98,-122"/>
<text text-anchor="middle" x="715" y="-99.8" font-family="Times,serif" font-size="14.00">PersonnelsComponent</text>
</g>
<!-- PersonnelsComponent&#45;&gt;AppModule -->
<g id="edge7" class="edge">
<title>PersonnelsComponent&#45;&gt;AppModule</title>
<path fill="none" stroke="black" d="M715,-122.24C715,-137.57 715,-157 715,-157 715,-157 897.17,-157 897.17,-157"/>
<polygon fill="black" stroke="black" points="897.17,-160.5 907.17,-157 897.17,-153.5 897.17,-160.5"/>
</g>
<!-- SearchFilterPipe -->
<g id="node8" class="node">
<title>SearchFilterPipe</title>
<polygon fill="#ffffb3" stroke="black" points="625.8,-122 516.2,-122 516.2,-86 625.8,-86 625.8,-122"/>
<text text-anchor="middle" x="571" y="-99.8" font-family="Times,serif" font-size="14.00">SearchFilterPipe</text>
</g>
<!-- SearchFilterPipe&#45;&gt;AppModule -->
<g id="edge8" class="edge">
<title>SearchFilterPipe&#45;&gt;AppModule</title>
<path fill="none" stroke="black" d="M571,-122.02C571,-139.37 571,-163 571,-163 571,-163 897.1,-163 897.1,-163"/>
<polygon fill="black" stroke="black" points="897.1,-166.5 907.1,-163 897.1,-159.5 897.1,-166.5"/>
</g>
<!-- SitesComponent -->
<g id="node9" class="node">
<title>SitesComponent</title>
<polygon fill="#ffffb3" stroke="black" points="498.06,-122 389.94,-122 389.94,-86 498.06,-86 498.06,-122"/>
<text text-anchor="middle" x="444" y="-99.8" font-family="Times,serif" font-size="14.00">SitesComponent</text>
</g>
<!-- SitesComponent&#45;&gt;AppModule -->
<g id="edge9" class="edge">
<title>SitesComponent&#45;&gt;AppModule</title>
<path fill="none" stroke="black" d="M444,-122.11C444,-141.34 444,-169 444,-169 444,-169 897.24,-169 897.24,-169"/>
<polygon fill="black" stroke="black" points="897.24,-172.5 907.24,-169 897.24,-165.5 897.24,-172.5"/>
</g>
<!-- TaxonomieComponent -->
<g id="node10" class="node">
<title>TaxonomieComponent</title>
<polygon fill="#ffffb3" stroke="black" points="371.6,-122 226.4,-122 226.4,-86 371.6,-86 371.6,-122"/>
<text text-anchor="middle" x="299" y="-99.8" font-family="Times,serif" font-size="14.00">TaxonomieComponent</text>
</g>
<!-- TaxonomieComponent&#45;&gt;AppModule -->
<g id="edge10" class="edge">
<title>TaxonomieComponent&#45;&gt;AppModule</title>
<path fill="none" stroke="black" d="M299,-122.28C299,-143.32 299,-175 299,-175 299,-175 896.85,-175 896.85,-175"/>
<polygon fill="black" stroke="black" points="896.85,-178.5 906.85,-175 896.85,-171.5 896.85,-178.5"/>
</g>
<!-- TaxonomieDetailsComponent -->
<g id="node11" class="node">
<title>TaxonomieDetailsComponent</title>
<polygon fill="#ffffb3" stroke="black" points="208.25,-122 23.75,-122 23.75,-86 208.25,-86 208.25,-122"/>
<text text-anchor="middle" x="116" y="-99.8" font-family="Times,serif" font-size="14.00">TaxonomieDetailsComponent</text>
</g>
<!-- TaxonomieDetailsComponent&#45;&gt;AppModule -->
<g id="edge11" class="edge">
<title>TaxonomieDetailsComponent&#45;&gt;AppModule</title>
<path fill="none" stroke="black" d="M116,-122.25C116,-145.02 116,-181 116,-181 116,-181 897.12,-181 897.12,-181"/>
<polygon fill="black" stroke="black" points="897.12,-184.5 907.12,-181 897.12,-177.5 897.12,-184.5"/>
</g>
<!-- AppComponent  -->
<g id="node14" class="node">
<title>AppComponent </title>
<polygon fill="#80b1d3" stroke="black" points="1003.44,-252 894.56,-252 894.56,-216 1003.44,-216 1003.44,-252"/>
<text text-anchor="middle" x="949" y="-229.8" font-family="Times,serif" font-size="14.00">AppComponent </text>
</g>
<!-- AppModule&#45;&gt;AppComponent  -->
<g id="edge13" class="edge">
<title>AppModule&#45;&gt;AppComponent </title>
<path fill="none" stroke="black" stroke-dasharray="1,5" d="M949,-187.11C949,-187.11 949,-205.99 949,-205.99"/>
<polygon fill="black" stroke="black" points="945.5,-205.99 949,-215.99 952.5,-205.99 945.5,-205.99"/>
</g>
<!-- AppRoutingModule -->
<g id="node13" class="node">
<title>AppRoutingModule</title>
<polygon fill="#8dd3c7" stroke="black" points="2009.27,-122 2006.27,-126 1985.27,-126 1982.27,-122 1880.73,-122 1880.73,-86 2009.27,-86 2009.27,-122"/>
<text text-anchor="middle" x="1945" y="-99.8" font-family="Times,serif" font-size="14.00">AppRoutingModule</text>
</g>
<!-- AppRoutingModule&#45;&gt;AppModule -->
<g id="edge12" class="edge">
<title>AppRoutingModule&#45;&gt;AppModule</title>
<path fill="none" stroke="black" d="M1945,-122.25C1945,-145.02 1945,-181 1945,-181 1945,-181 1000.84,-181 1000.84,-181"/>
<polygon fill="black" stroke="black" points="1000.84,-177.5 990.84,-181 1000.84,-184.5 1000.84,-177.5"/>
</g>
</g>
</svg>
